<?xml version="1.0" encoding="UTF-8" standalone="no"?>
<svg
   xmlns:dc="http://purl.org/dc/elements/1.1/"
   xmlns:cc="http://creativecommons.org/ns#"
   xmlns:rdf="http://www.w3.org/1999/02/22-rdf-syntax-ns#"
   xmlns:svg="http://www.w3.org/2000/svg"
   xmlns="http://www.w3.org/2000/svg"
   id="svg12646"
   viewBox="0, 0, 128, 128"
   height="128"
   width="128"
   y="0px"
   x="0px"
   version="1.1">
  <metadata
     id="metadata12650">
    <rdf:RDF>
      <cc:Work
         rdf:about="">
        <dc:format>image/svg+xml</dc:format>
        <dc:type
           rdf:resource="http://purl.org/dc/dcmitype/StillImage" />
        <dc:title></dc:title>
      </cc:Work>
    </rdf:RDF>
  </metadata>
  <g
     id="Background">
    <rect
       id="rect12629"
       fill-opacity="0"
       fill="#000000"
       height="128"
       width="128"
       y="0"
       x="0" />
  </g>
  <g
     id="g12642">
    <path
       fill="#737370"
       id="path12632"
       d="M18.092,6 L109.903,6 C116.552,6 122,11.441 122,18.096 L122,109.902 C122,116.559 116.552,122 109.903,122 L18.092,122 C11.436,122 6,116.559 6,109.902 L6,18.096 C6,11.441 11.436,6 18.092,6" />
    <g
       style="fill:#ebeded;fill-opacity:1"
       id="g12458"
       transform="matrix(1.7,0,0,1.7,10.531611,9.9960451)">
      <g
         style="fill:#ebeded;fill-opacity:1"
         id="group-11svg">
        <path
           style="fill:#ebeded;fill-opacity:1"
           d="m 31.505,63.009 c -11.829,0 -23.849,-20.804 -23.849,-32.428 0,-11.786 12.379,-19.082 23.849,-19.082 11.469,0 23.848,7.296 23.848,19.082 0,11.624 -12.02,32.428 -23.848,32.428 z m 0,-48.51 c -10.027,0 -20.849,6.149 -20.849,16.082 0,10.231 11.045,29.428 20.849,29.428 9.803,0 20.848,-19.197 20.848,-29.428 0,-9.933 -10.822,-16.082 -20.848,-16.082 z"
           id="path-1_1_" />
        <path
           style="fill:#ebeded;fill-opacity:1"
           d="m 15.711,15.865 c -0.51,0 -0.986,-0.227 -1.262,-0.657 -0.282,-0.438 -0.317,-0.976 -0.09,-1.446 2.104,-4.374 6.679,-5.68 9.522,-6.069 C 22.899,6.299 21.332,4.323 19.901,2.65 19.58,2.274 19.463,1.766 19.591,1.288 19.72,0.811 20.075,0.428 20.542,0.263 21.038,0.088 21.583,0 22.16,0 c 3.408,0 7.624,3.193 9.55,4.819 1.946,-1.621 6.109,-4.724 9.485,-4.724 0.581,0 1.129,0.09 1.628,0.266 0.469,0.166 0.825,0.553 0.952,1.034 0.126,0.481 0.006,0.993 -0.322,1.368 -1.313,1.502 -2.742,3.261 -3.726,4.596 2.865,0.144 7.282,1.267 9.322,6.457 0.181,0.462 0.122,0.984 -0.157,1.394 -0.279,0.41 -0.743,0.655 -1.239,0.655 H 40.17 c -0.11,0 -0.218,-0.012 -0.325,-0.035 l -7.927,-1.754 c -0.156,0.008 -0.371,0.015 -0.687,0.017 l -7.554,1.641 c -0.094,0.021 -0.19,0 -0.287,0.002 l -7.648,0.129 c -0.011,0 -0.021,0 -0.031,0 z m 24.623,-3 h 4.741 c -1.673,-2.035 -4.102,-2.524 -6.045,-2.524 -0.992,0 -1.676,0.136 -1.683,0.138 -0.465,0.092 -0.945,-0.036 -1.298,-0.35 -0.352,-0.313 -0.539,-0.774 -0.5,-1.245 0.075,-0.882 1.118,-2.585 3.11,-5.078 -1.965,0.915 -4.164,2.715 -5.602,3.983 -0.231,0.531 -0.761,1.076 -1.375,1.076 -10e-4,0 -0.002,0 -0.003,0 -0.637,0 -1.184,-0.577 -1.399,-1.142 -1.451,-1.288 -3.667,-3.024 -5.635,-3.94 2.031,2.585 3.095,4.293 3.169,5.182 0.035,0.429 -0.115,0.831 -0.413,1.141 -0.3,0.31 -0.713,0.47 -1.147,0.448 l -0.18,-0.008 c -0.901,0 -4.705,0.134 -7.288,2.321 l 4.396,-0.094 7.565,-1.644 c 0.102,-0.022 0.206,-0.034 0.31,-0.034 0.445,-0.003 0.647,-0.01 0.738,-0.017 0.18,-0.026 0.368,-0.021 0.546,0.019 z"
           id="path-2_1_" />
        <path
           style="fill:#ebeded;fill-opacity:1"
           d="m 18.477,29.21 c 0,0.918 -0.744,1.662 -1.661,1.662 -0.918,0 -1.661,-0.744 -1.661,-1.662 0,-0.917 0.743,-1.661 1.661,-1.661 0.917,0 1.661,0.744 1.661,1.661 z"
           id="path-3_1_" />
        <path
           style="fill:#ebeded;fill-opacity:1"
           d="m 28.445,29.21 c 0,0.918 -0.743,1.662 -1.661,1.662 -0.918,0 -1.661,-0.744 -1.661,-1.662 0,-0.917 0.743,-1.661 1.661,-1.661 0.918,0 1.661,0.744 1.661,1.661 z"
           id="path-4_1_" />
        <path
           style="fill:#ebeded;fill-opacity:1"
           d="m 38.413,29.21 c 0,0.918 -0.743,1.662 -1.661,1.662 -0.917,0 -1.662,-0.744 -1.662,-1.662 0,-0.917 0.745,-1.661 1.662,-1.661 0.918,0 1.661,0.744 1.661,1.661 z"
           id="path-5_1_" />
        <path
           style="fill:#ebeded;fill-opacity:1"
           d="m 48.381,29.21 c 0,0.918 -0.744,1.662 -1.662,1.662 -0.917,0 -1.661,-0.744 -1.661,-1.662 0,-0.917 0.744,-1.661 1.661,-1.661 0.918,0 1.662,0.744 1.662,1.661 z"
           id="path-6" />
        <path
           style="fill:#ebeded;fill-opacity:1"
           d="m 22.907,36.963 c 0,0.918 -0.743,1.662 -1.661,1.662 -0.917,0 -1.661,-0.744 -1.661,-1.662 0,-0.917 0.744,-1.661 1.661,-1.661 0.918,0 1.661,0.744 1.661,1.661 z"
           id="path-7" />
        <path
           style="fill:#ebeded;fill-opacity:1"
           d="m 32.876,36.963 c 0,0.918 -0.745,1.662 -1.662,1.662 -0.917,0 -1.662,-0.744 -1.662,-1.662 0,-0.917 0.745,-1.661 1.662,-1.661 0.917,0 1.662,0.744 1.662,1.661 z"
           id="path-8" />
        <path
           style="fill:#ebeded;fill-opacity:1"
           d="m 42.843,36.963 c 0,0.918 -0.744,1.662 -1.661,1.662 -0.918,0 -1.661,-0.744 -1.661,-1.662 0,-0.917 0.743,-1.661 1.661,-1.661 0.917,0 1.661,0.744 1.661,1.661 z"
           id="path-9" />
        <path
           style="fill:#ebeded;fill-opacity:1"
           d="m 22.907,21.934 c 0,0.917 -0.743,1.661 -1.661,1.661 -0.917,0 -1.661,-0.744 -1.661,-1.661 0,-0.918 0.744,-1.661 1.661,-1.661 0.918,0 1.661,0.743 1.661,1.661 z"
           id="path-10" />
        <path
           style="fill:#ebeded;fill-opacity:1"
           d="m 32.876,21.934 c 0,0.917 -0.745,1.661 -1.662,1.661 -0.917,0 -1.662,-0.744 -1.662,-1.661 0,-0.918 0.745,-1.661 1.662,-1.661 0.917,0 1.662,0.743 1.662,1.661 z"
           id="path-11" />
        <path
           style="fill:#ebeded;fill-opacity:1"
           d="m 42.843,21.934 c 0,0.917 -0.744,1.661 -1.661,1.661 -0.918,0 -1.661,-0.744 -1.661,-1.661 0,-0.918 0.743,-1.661 1.661,-1.661 0.917,0 1.661,0.743 1.661,1.661 z"
           id="path-12" />
        <path
           style="fill:#ebeded;fill-opacity:1"
           d="m 27.337,46.931 c 0,0.918 -0.744,1.661 -1.661,1.661 -0.918,0 -1.661,-0.743 -1.661,-1.661 0,-0.917 0.743,-1.661 1.661,-1.661 0.917,0 1.661,0.744 1.661,1.661 z"
           id="path-13" />
        <path
           style="fill:#ebeded;fill-opacity:1"
           d="m 37.305,46.931 c 0,0.918 -0.743,1.661 -1.661,1.661 -0.917,0 -1.661,-0.743 -1.661,-1.661 0,-0.917 0.744,-1.661 1.661,-1.661 0.918,0 1.661,0.744 1.661,1.661 z"
           id="path-14" />
        <path
           style="fill:#ebeded;fill-opacity:1"
           d="m 32.876,54.684 c 0,0.918 -0.745,1.661 -1.662,1.661 -0.917,0 -1.662,-0.743 -1.662,-1.661 0,-0.917 0.745,-1.661 1.662,-1.661 0.917,0 1.662,0.744 1.662,1.661 z"
           id="path-15" />
      </g>
    </g>
  </g>
  <defs
     id="defs12644" />
</svg>
